<?xml version="1.0" encoding="UTF-8" standalone="no"?>
<!DOCTYPE svg PUBLIC "-//W3C//DTD SVG 1.1//EN" "http://www.w3.org/Graphics/SVG/1.1/DTD/svg11.dtd">
<svg width="100%" height="100%" viewBox="0 0 332 147" version="1.1" xmlns="http://www.w3.org/2000/svg" xmlns:xlink="http://www.w3.org/1999/xlink" xml:space="preserve" xmlns:serif="http://www.serif.com/" style="fill-rule:evenodd;clip-rule:evenodd;stroke-linejoin:round;stroke-miterlimit:1.5;">
    <g transform="matrix(1,0,0,1,-107,-363)">
        <g id="xploit-gospel-colored" transform="matrix(1,0,0,1,-133.261,31.1135)">
            <g transform="matrix(2.86764,-0.0252702,0.0252702,2.86764,42.8799,-296.904)">
                <text x="132.958px" y="249.379px" style="font-family:'ForteMT', 'Forte', cursive;font-size:12px;fill:rgb(242,13,94);">xploit</text>
            </g>
            <g transform="matrix(2.40523,0,0,2.40523,52.6101,-650.815)">
                <g transform="matrix(-0.0593459,-0.633274,0.633274,-0.0593459,52.3098,644.503)">
                    <path d="M332.954,143.921C332.954,161.076 319.027,175.275 301.872,175.275C284.718,175.275 270.79,161.347 270.79,144.193C270.79,127.038 284.718,113.111 301.872,113.111" style="fill:none;stroke:black;stroke-width:8.57px;"/>
                </g>
                <g transform="matrix(0.399334,0.18796,-0.18796,0.399334,32.1632,330.586)">
                    <path d="M332.954,144.193C332.954,161.347 319.027,175.275 301.872,175.275C284.718,175.275 270.79,161.347 270.79,144.193C270.79,127.038 284.718,113.111 301.872,113.111" style="fill:none;stroke:black;stroke-width:7.38px;stroke-linecap:square;"/>
                </g>
                <g transform="matrix(-0.059036,0.293191,-0.293191,-0.059036,185.706,364.913)">
                    <path d="M332.954,144.193C332.954,161.347 319.027,175.275 301.872,175.275C284.718,175.275 270.79,161.347 270.79,144.193C270.79,127.038 284.718,113.111 301.872,113.111" style="fill:none;stroke:black;stroke-width:2.85px;"/>
                </g>
                <g transform="matrix(-0.110768,-0.110063,0.110063,-0.110768,143.168,494.25)">
                    <path d="M332.954,144.193C332.954,161.347 319.027,175.275 301.872,175.275C284.718,175.275 270.79,161.347 270.79,144.193C270.79,127.038 284.718,113.111 301.872,113.111" style="fill:none;stroke:black;stroke-width:39.09px;"/>
                </g>
                <g transform="matrix(-0.00507002,0.145667,-0.125964,-0.00438427,160.784,415.011)">
                    <path d="M209.397,287.781C210.38,286.397 211.826,285.564 213.373,285.491C214.92,285.418 216.42,286.111 217.497,287.398C226.07,297.639 244.669,319.856 244.669,319.856C244.669,319.856 235.628,329.841 215.521,330.605C194.049,331.421 184.854,322.354 184.854,322.354C184.854,322.354 201.629,298.724 209.397,287.781Z" style="fill:rgb(242,13,94);"/>
                </g>
                <g transform="matrix(0.485274,0,0,0.372802,48.0475,372.822)">
                    <path d="M105.83,252.163L93.251,252.163L93.251,172.14L67.037,172.14L67.037,155.766L105.83,155.766L105.83,252.163Z" style="fill:rgb(234,167,17);"/>
                </g>
                <g transform="matrix(-0.496623,4.40216e-17,4.40216e-17,-0.137159,145.482,447.7)">
                    <path d="M93.615,185.408L67.401,185.408L67.401,142.498L105.466,142.498L105.466,265.431L93.615,265.431L93.615,185.408Z" style="fill:rgb(234,167,17);"/>
                </g>
            </g>
            <g transform="matrix(1.84609,0,0,1.84609,-338.917,-344.506)">
                <text x="408.971px" y="428.95px" style="font-family:'Broadway', fantasy;font-size:24.317px;fill:rgb(6,44,170);">Gospel</text>
            </g>
        </g>
    </g>
</svg>
